<?xml version="1.0" encoding="UTF-8" standalone="no"?>
<svg
   xmlns:dc="http://purl.org/dc/elements/1.1/"
   xmlns:cc="http://creativecommons.org/ns#"
   xmlns:rdf="http://www.w3.org/1999/02/22-rdf-syntax-ns#"
   xmlns:svg="http://www.w3.org/2000/svg"
   xmlns="http://www.w3.org/2000/svg"
   id="svg4"
   version="1.1"
   viewBox="0 0 32 32">
  <metadata
     id="metadata10">
    <rdf:RDF>
      <cc:Work
         rdf:about="">
        <dc:format>image/svg+xml</dc:format>
        <dc:type
           rdf:resource="http://purl.org/dc/dcmitype/StillImage" />
        <dc:title></dc:title>
      </cc:Work>
    </rdf:RDF>
  </metadata>
  <defs
     id="defs8" />
  <path
     id="path2"
     font-family="Bitstream Vera Sans"
     overflow="visible"
     d="M 16 4 C 10.888652 4 6.6170137 7.16109 4.875 11.625 L 6.71875 12.375 C 8.1767363 8.63891 11.711348 6 16 6 C 19.240366 6 22.133605 7.5895584 23.9375 10 L 20 10 L 20 12 L 26 12 L 27 12 L 27 11 L 27 5 L 25 5 L 25 8.09375 C 22.810028 5.580832 19.57094 4 16 4 z M 25.28125 19.625 C 23.823264 23.36109 20.288652 26 16 26 C 12.723524 26 9.8434309 24.388336 8.03125 22 L 12 22 L 12 20 L 6 20 L 5 20 L 5 21 L 5 27 L 7 27 L 7 23.90625 C 9.1885848 26.385518 12.394607 28 16 28 C 21.111348 28 25.382986 24.83891 27.125 20.375 L 25.28125 19.625 z"
     style="text-indent:0;text-align:start;line-height:normal;text-transform:none;block-progression:tb;-inkscape-font-specification:Bitstream Vera Sans" />
  <path
     id="path3715"
     d="M 5.8783858,11.981614 C 5.4796336,11.824565 5.1246282,11.621139 5.089485,11.529558 4.9079143,11.056392 6.475341,8.7024328 7.8425083,7.3950715 9.9034621,5.4242731 11.973209,4.4717207 14.924825,4.1356024 c 3.153499,-0.359108 6.727331,0.8673004 9.160733,3.1436281 0.471611,0.441169 0.895462,0.8021254 0.94189,0.8021254 0.04643,0 0.08442,-0.6711864 0.08442,-1.4915254 V 5.0983051 h 0.881356 0.881356 V 8.4881356 11.877966 H 23.48475 20.094919 V 10.99661 10.115254 h 1.898305 c 1.489862,0 1.898305,-0.03883 1.898305,-0.1804745 0,-0.290483 -1.891365,-2.0283742 -2.80752,-2.5797047 C 18.857306,6.015074 16.056719,5.6096046 13.495142,6.2563578 13.060611,6.3660694 12.12558,6.7402011 11.417297,7.0877615 9.7021129,7.9294161 8.1017973,9.4901841 7.2356172,11.166102 6.9176297,11.781356 6.6452927,12.280788 6.6304239,12.275952 6.6155551,12.271115 6.277138,12.138663 5.8783858,11.981614 Z"
     style="fill:#ffffff;stroke-width:0.13559322" />
  <path
     id="path3717"
     d="M 13.088643,27.551335 C 11.045457,27.009811 9.3308774,26.047095 7.7898305,24.576112 L 6.9423729,23.767184 v 1.580815 1.580815 H 5.9932203 5.0440678 v -3.457628 -3.457627 h 3.4576271 3.4576271 v 0.949153 0.949152 H 9.9932203 c -1.2090904,0 -1.9661017,0.05176 -1.9661017,0.13444 0,0.2422 1.6767434,1.830636 2.5084744,2.376363 4.851728,3.183382 11.592266,1.463456 14.242785,-3.634211 0.279763,-0.538058 0.522328,-0.995777 0.539036,-1.017155 0.04554,-0.05826 1.47149,0.515415 1.605249,0.645805 0.162241,0.158156 -0.720146,1.785992 -1.582001,2.918487 -1.034807,1.359759 -2.483471,2.535483 -4.093204,3.322012 -1.893249,0.925056 -2.633051,1.099415 -4.949153,1.166432 -1.760386,0.05094 -2.096217,0.0224 -3.209662,-0.272702 z"
     style="fill:#ffffff;stroke-width:0.13559322" />
  <path
     id="path3719"
     d=""
     style="fill:#ffffff;stroke-width:0.13559322" />
</svg>
